<svg width="34" height="30" viewBox="0 0 34 30" fill="none" xmlns="http://www.w3.org/2000/svg">
<path d="M25.2527 2.49686C28.2509 -0.49858 31.0021 1.50466 34 4.50009L32.9648 5.46492C30.7317 3.23485 28.8478 1.62038 26.6124 3.85682C25.6855 4.78369 25.1147 5.9612 24.9612 7.26103C24.9612 7.26103 24.935 8.4192 23.9156 8.29334C22.8941 8.16388 23.0512 7.03548 23.0512 7.03548C23.2562 5.30292 24.0175 3.73203 25.2527 2.49686Z" fill="white"/>
<path d="M8.18638 15.3544C7.73205 15.8087 7.95977 16.5151 8.93936 17.4961C9.91895 18.4756 10.6264 18.7037 11.0796 18.249C11.534 17.7947 11.2955 17.1016 10.3145 16.1206C9.33408 15.1386 8.64095 14.8998 8.18638 15.3544Z" fill="white"/>
<path d="M18.0981 12.4742C17.6449 12.9285 17.8726 13.6338 18.8547 14.6145C19.8332 15.593 20.5382 15.8207 20.9928 15.3675C21.4471 14.9117 21.2194 14.2068 20.2398 13.2283C19.2588 12.2465 18.555 12.0198 18.0981 12.4742Z" fill="white"/>
<path d="M29.4401 3.51429C28.7051 3.72186 28.0048 4.09338 27.4268 4.67138C26.6846 5.41248 26.2278 6.35377 26.1066 7.39462C26.1091 7.46777 26.0528 8.3875 25.3522 8.99194C25.0549 9.24726 24.5368 9.53267 23.7717 9.43689C23.279 9.37562 22.8473 9.17191 22.5235 8.84813C21.7813 8.10703 21.882 7.0772 21.9096 6.87787C22.1398 4.90759 23.0151 3.10437 24.4361 1.68201C24.8832 1.23486 25.369 0.852299 25.8786 0.519975L17.7616 0.00547111C16.7064 -0.0616027 15.2327 0.495964 14.4869 1.2429L0.559379 15.1718C-0.18646 15.9187 -0.18646 17.1431 0.559379 17.8901L12.1105 29.4398C12.8563 30.1867 14.0818 30.1867 14.8277 29.4398L28.7566 15.5123C29.5024 14.7654 30.0589 13.2904 29.9929 12.2365L29.4401 3.51429ZM12.371 19.539C10.9368 20.9743 9.04713 20.5667 7.48097 19.003C5.91369 17.4357 5.50851 15.5461 6.94245 14.1118C8.37774 12.6776 10.2545 13.0961 11.8203 14.6622C13.3865 16.2273 13.8074 18.1051 12.371 19.539L12.371 19.539ZM16.545 21.7036L11.1046 9.90164L12.6815 9.06585L18.1098 20.8791L16.545 21.7036ZM22.2827 16.6587C20.8485 18.094 18.96 17.6852 17.394 16.1202C15.8279 14.5529 15.4191 12.6644 16.8544 11.2302C18.2897 9.79487 20.1797 10.2025 21.7455 11.7687C23.3104 13.3337 23.718 15.2234 22.2827 16.6587H22.2827Z" fill="white"/>
</svg>
